ISO-10303-21;
HEADER;
/* Generated by software containing ST-Developer
 * from STEP Tools, Inc. (www.steptools.com) 
 */

FILE_DESCRIPTION(
/* description */ (''),
/* implementation_level */ '2;1');

FILE_NAME(
/* name */ 
'E:\\01_Altium\\01_Librairie\\00_Librairie_Interne\\STEP\\TO-39.stp',
/* time_stamp */ '2021-06-11T16:22:30+02:00',
/* author */ ('Utilisateur'),
/* organization */ (''),
/* preprocessor_version */ 'ST-DEVELOPER v18.1',
/* originating_system */ 'Autodesk Inventor 2022',
/* authorisation */ '');

FILE_SCHEMA (('AUTOMOTIVE_DESIGN { 1 0 10303 214 3 1 1 }'));
ENDSEC;

DATA;
#10=MECHANICAL_DESIGN_GEOMETRIC_PRESENTATION_REPRESENTATION('',(#222,#223,
#224,#225,#226,#227,#228,#229,#230,#231,#232,#233,#234,#235,#236,#237,#238),
#454);
#11=SHAPE_REPRESENTATION_RELATIONSHIP('SRR','None',#461,#12);
#12=ADVANCED_BREP_SHAPE_REPRESENTATION('',(#13),#453);
#13=MANIFOLD_SOLID_BREP('Solide1',#255);
#14=FACE_BOUND('',#71,.T.);
#15=FACE_BOUND('',#72,.T.);
#16=FACE_BOUND('',#73,.T.);
#17=TOROIDAL_SURFACE('',#296,4.755,0.5);
#18=TOROIDAL_SURFACE('',#301,3.755,0.5);
#19=CYLINDRICAL_SURFACE('',#280,4.7);
#20=CYLINDRICAL_SURFACE('',#284,0.265);
#21=CYLINDRICAL_SURFACE('',#288,0.265);
#22=CYLINDRICAL_SURFACE('',#292,0.265);
#23=CYLINDRICAL_SURFACE('',#299,4.255);
#24=CIRCLE('',#279,4.7);
#25=CIRCLE('',#281,4.7);
#26=CIRCLE('',#282,4.7);
#27=CIRCLE('',#283,4.7);
#28=CIRCLE('',#285,0.265);
#29=CIRCLE('',#286,0.265);
#30=CIRCLE('',#289,0.265);
#31=CIRCLE('',#290,0.265);
#32=CIRCLE('',#293,0.265);
#33=CIRCLE('',#294,0.265);
#34=CIRCLE('',#297,4.255);
#35=CIRCLE('',#298,0.5);
#36=CIRCLE('',#300,4.255);
#37=CIRCLE('',#302,3.755);
#38=CIRCLE('',#303,0.5);
#39=FACE_OUTER_BOUND('',#55,.T.);
#40=FACE_OUTER_BOUND('',#56,.T.);
#41=FACE_OUTER_BOUND('',#57,.T.);
#42=FACE_OUTER_BOUND('',#58,.T.);
#43=FACE_OUTER_BOUND('',#59,.T.);
#44=FACE_OUTER_BOUND('',#60,.T.);
#45=FACE_OUTER_BOUND('',#61,.T.);
#46=FACE_OUTER_BOUND('',#62,.T.);
#47=FACE_OUTER_BOUND('',#63,.T.);
#48=FACE_OUTER_BOUND('',#64,.T.);
#49=FACE_OUTER_BOUND('',#65,.T.);
#50=FACE_OUTER_BOUND('',#66,.T.);
#51=FACE_OUTER_BOUND('',#67,.T.);
#52=FACE_OUTER_BOUND('',#68,.T.);
#53=FACE_OUTER_BOUND('',#69,.T.);
#54=FACE_OUTER_BOUND('',#70,.T.);
#55=EDGE_LOOP('',(#153,#154,#155,#156));
#56=EDGE_LOOP('',(#157,#158,#159,#160));
#57=EDGE_LOOP('',(#161,#162,#163,#164));
#58=EDGE_LOOP('',(#165,#166,#167,#168));
#59=EDGE_LOOP('',(#169,#170,#171,#172,#173,#174,#175,#176));
#60=EDGE_LOOP('',(#177,#178,#179,#180));
#61=EDGE_LOOP('',(#181));
#62=EDGE_LOOP('',(#182,#183,#184,#185));
#63=EDGE_LOOP('',(#186));
#64=EDGE_LOOP('',(#187,#188,#189,#190));
#65=EDGE_LOOP('',(#191));
#66=EDGE_LOOP('',(#192,#193,#194,#195));
#67=EDGE_LOOP('',(#196,#197,#198,#199));
#68=EDGE_LOOP('',(#200,#201,#202,#203));
#69=EDGE_LOOP('',(#204));
#70=EDGE_LOOP('',(#205,#206,#207,#208,#209));
#71=EDGE_LOOP('',(#210));
#72=EDGE_LOOP('',(#211));
#73=EDGE_LOOP('',(#212));
#74=LINE('',#389,#89);
#75=LINE('',#391,#90);
#76=LINE('',#393,#91);
#77=LINE('',#394,#92);
#78=LINE('',#398,#93);
#79=LINE('',#400,#94);
#80=LINE('',#402,#95);
#81=LINE('',#403,#96);
#82=LINE('',#405,#97);
#83=LINE('',#406,#98);
#84=LINE('',#413,#99);
#85=LINE('',#420,#100);
#86=LINE('',#427,#101);
#87=LINE('',#434,#102);
#88=LINE('',#444,#103);
#89=VECTOR('',#310,10.);
#90=VECTOR('',#311,10.);
#91=VECTOR('',#312,10.);
#92=VECTOR('',#313,10.);
#93=VECTOR('',#316,10.);
#94=VECTOR('',#317,10.);
#95=VECTOR('',#318,10.);
#96=VECTOR('',#319,10.);
#97=VECTOR('',#322,10.);
#98=VECTOR('',#323,10.);
#99=VECTOR('',#332,4.7);
#100=VECTOR('',#341,0.265);
#101=VECTOR('',#350,0.265);
#102=VECTOR('',#359,0.265);
#103=VECTOR('',#374,4.255);
#104=VERTEX_POINT('',#387);
#105=VERTEX_POINT('',#388);
#106=VERTEX_POINT('',#390);
#107=VERTEX_POINT('',#392);
#108=VERTEX_POINT('',#396);
#109=VERTEX_POINT('',#397);
#110=VERTEX_POINT('',#399);
#111=VERTEX_POINT('',#401);
#112=VERTEX_POINT('',#410);
#113=VERTEX_POINT('',#412);
#114=VERTEX_POINT('',#417);
#115=VERTEX_POINT('',#419);
#116=VERTEX_POINT('',#424);
#117=VERTEX_POINT('',#426);
#118=VERTEX_POINT('',#431);
#119=VERTEX_POINT('',#433);
#120=VERTEX_POINT('',#438);
#121=VERTEX_POINT('',#442);
#122=VERTEX_POINT('',#446);
#123=EDGE_CURVE('',#104,#105,#74,.T.);
#124=EDGE_CURVE('',#106,#104,#75,.T.);
#125=EDGE_CURVE('',#106,#107,#76,.T.);
#126=EDGE_CURVE('',#105,#107,#77,.T.);
#127=EDGE_CURVE('',#108,#109,#78,.T.);
#128=EDGE_CURVE('',#110,#108,#79,.T.);
#129=EDGE_CURVE('',#111,#110,#80,.T.);
#130=EDGE_CURVE('',#109,#111,#81,.T.);
#131=EDGE_CURVE('',#111,#106,#82,.T.);
#132=EDGE_CURVE('',#107,#110,#83,.T.);
#133=EDGE_CURVE('',#105,#108,#24,.T.);
#134=EDGE_CURVE('',#112,#112,#25,.T.);
#135=EDGE_CURVE('',#112,#113,#84,.T.);
#136=EDGE_CURVE('',#113,#104,#26,.T.);
#137=EDGE_CURVE('',#109,#113,#27,.T.);
#138=EDGE_CURVE('',#114,#114,#28,.T.);
#139=EDGE_CURVE('',#114,#115,#85,.T.);
#140=EDGE_CURVE('',#115,#115,#29,.T.);
#141=EDGE_CURVE('',#116,#116,#30,.T.);
#142=EDGE_CURVE('',#116,#117,#86,.T.);
#143=EDGE_CURVE('',#117,#117,#31,.T.);
#144=EDGE_CURVE('',#118,#118,#32,.T.);
#145=EDGE_CURVE('',#118,#119,#87,.T.);
#146=EDGE_CURVE('',#119,#119,#33,.T.);
#147=EDGE_CURVE('',#120,#120,#34,.T.);
#148=EDGE_CURVE('',#120,#112,#35,.T.);
#149=EDGE_CURVE('',#121,#121,#36,.T.);
#150=EDGE_CURVE('',#121,#120,#88,.T.);
#151=EDGE_CURVE('',#122,#122,#37,.T.);
#152=EDGE_CURVE('',#122,#121,#38,.T.);
#153=ORIENTED_EDGE('',*,*,#123,.F.);
#154=ORIENTED_EDGE('',*,*,#124,.F.);
#155=ORIENTED_EDGE('',*,*,#125,.T.);
#156=ORIENTED_EDGE('',*,*,#126,.F.);
#157=ORIENTED_EDGE('',*,*,#127,.F.);
#158=ORIENTED_EDGE('',*,*,#128,.F.);
#159=ORIENTED_EDGE('',*,*,#129,.F.);
#160=ORIENTED_EDGE('',*,*,#130,.F.);
#161=ORIENTED_EDGE('',*,*,#131,.F.);
#162=ORIENTED_EDGE('',*,*,#129,.T.);
#163=ORIENTED_EDGE('',*,*,#132,.F.);
#164=ORIENTED_EDGE('',*,*,#125,.F.);
#165=ORIENTED_EDGE('',*,*,#133,.F.);
#166=ORIENTED_EDGE('',*,*,#126,.T.);
#167=ORIENTED_EDGE('',*,*,#132,.T.);
#168=ORIENTED_EDGE('',*,*,#128,.T.);
#169=ORIENTED_EDGE('',*,*,#134,.F.);
#170=ORIENTED_EDGE('',*,*,#135,.T.);
#171=ORIENTED_EDGE('',*,*,#136,.T.);
#172=ORIENTED_EDGE('',*,*,#123,.T.);
#173=ORIENTED_EDGE('',*,*,#133,.T.);
#174=ORIENTED_EDGE('',*,*,#127,.T.);
#175=ORIENTED_EDGE('',*,*,#137,.T.);
#176=ORIENTED_EDGE('',*,*,#135,.F.);
#177=ORIENTED_EDGE('',*,*,#138,.F.);
#178=ORIENTED_EDGE('',*,*,#139,.T.);
#179=ORIENTED_EDGE('',*,*,#140,.F.);
#180=ORIENTED_EDGE('',*,*,#139,.F.);
#181=ORIENTED_EDGE('',*,*,#138,.T.);
#182=ORIENTED_EDGE('',*,*,#141,.F.);
#183=ORIENTED_EDGE('',*,*,#142,.T.);
#184=ORIENTED_EDGE('',*,*,#143,.F.);
#185=ORIENTED_EDGE('',*,*,#142,.F.);
#186=ORIENTED_EDGE('',*,*,#141,.T.);
#187=ORIENTED_EDGE('',*,*,#144,.F.);
#188=ORIENTED_EDGE('',*,*,#145,.T.);
#189=ORIENTED_EDGE('',*,*,#146,.F.);
#190=ORIENTED_EDGE('',*,*,#145,.F.);
#191=ORIENTED_EDGE('',*,*,#144,.T.);
#192=ORIENTED_EDGE('',*,*,#147,.T.);
#193=ORIENTED_EDGE('',*,*,#148,.T.);
#194=ORIENTED_EDGE('',*,*,#134,.T.);
#195=ORIENTED_EDGE('',*,*,#148,.F.);
#196=ORIENTED_EDGE('',*,*,#149,.F.);
#197=ORIENTED_EDGE('',*,*,#150,.T.);
#198=ORIENTED_EDGE('',*,*,#147,.F.);
#199=ORIENTED_EDGE('',*,*,#150,.F.);
#200=ORIENTED_EDGE('',*,*,#151,.T.);
#201=ORIENTED_EDGE('',*,*,#152,.T.);
#202=ORIENTED_EDGE('',*,*,#149,.T.);
#203=ORIENTED_EDGE('',*,*,#152,.F.);
#204=ORIENTED_EDGE('',*,*,#151,.F.);
#205=ORIENTED_EDGE('',*,*,#137,.F.);
#206=ORIENTED_EDGE('',*,*,#130,.T.);
#207=ORIENTED_EDGE('',*,*,#131,.T.);
#208=ORIENTED_EDGE('',*,*,#124,.T.);
#209=ORIENTED_EDGE('',*,*,#136,.F.);
#210=ORIENTED_EDGE('',*,*,#140,.T.);
#211=ORIENTED_EDGE('',*,*,#143,.T.);
#212=ORIENTED_EDGE('',*,*,#146,.T.);
#213=PLANE('',#275);
#214=PLANE('',#276);
#215=PLANE('',#277);
#216=PLANE('',#278);
#217=PLANE('',#287);
#218=PLANE('',#291);
#219=PLANE('',#295);
#220=PLANE('',#304);
#221=PLANE('',#305);
#222=STYLED_ITEM('',(#471),#239);
#223=STYLED_ITEM('',(#471),#240);
#224=STYLED_ITEM('',(#471),#241);
#225=STYLED_ITEM('',(#471),#242);
#226=STYLED_ITEM('',(#471),#243);
#227=STYLED_ITEM('',(#472),#244);
#228=STYLED_ITEM('',(#472),#245);
#229=STYLED_ITEM('',(#472),#246);
#230=STYLED_ITEM('',(#471),#247);
#231=STYLED_ITEM('',(#472),#248);
#232=STYLED_ITEM('',(#471),#249);
#233=STYLED_ITEM('',(#471),#250);
#234=STYLED_ITEM('',(#471),#251);
#235=STYLED_ITEM('',(#471),#252);
#236=STYLED_ITEM('',(#471),#253);
#237=STYLED_ITEM('',(#471),#254);
#238=STYLED_ITEM('',(#470),#13);
#239=ADVANCED_FACE('',(#39),#213,.T.);
#240=ADVANCED_FACE('',(#40),#214,.T.);
#241=ADVANCED_FACE('',(#41),#215,.T.);
#242=ADVANCED_FACE('',(#42),#216,.T.);
#243=ADVANCED_FACE('',(#43),#19,.T.);
#244=ADVANCED_FACE('',(#44),#20,.T.);
#245=ADVANCED_FACE('',(#45),#217,.T.);
#246=ADVANCED_FACE('',(#46),#21,.T.);
#247=ADVANCED_FACE('',(#47),#218,.T.);
#248=ADVANCED_FACE('',(#48),#22,.T.);
#249=ADVANCED_FACE('',(#49),#219,.T.);
#250=ADVANCED_FACE('',(#50),#17,.F.);
#251=ADVANCED_FACE('',(#51),#23,.T.);
#252=ADVANCED_FACE('',(#52),#18,.T.);
#253=ADVANCED_FACE('',(#53),#220,.T.);
#254=ADVANCED_FACE('',(#54,#14,#15,#16),#221,.T.);
#255=CLOSED_SHELL('',(#239,#240,#241,#242,#243,#244,#245,#246,#247,#248,
#249,#250,#251,#252,#253,#254));
#256=DERIVED_UNIT_ELEMENT(#258,1.);
#257=DERIVED_UNIT_ELEMENT(#456,-3.);
#258=(
MASS_UNIT()
NAMED_UNIT(*)
SI_UNIT($,.GRAM.)
);
#259=DERIVED_UNIT((#256,#257));
#260=MEASURE_REPRESENTATION_ITEM('density measure',
POSITIVE_RATIO_MEASURE(1.),#259);
#261=PROPERTY_DEFINITION_REPRESENTATION(#266,#263);
#262=PROPERTY_DEFINITION_REPRESENTATION(#267,#264);
#263=REPRESENTATION('material name',(#265),#453);
#264=REPRESENTATION('density',(#260),#453);
#265=DESCRIPTIVE_REPRESENTATION_ITEM('G\X\E9n\X\E9rique','G\X\E9n\X\E9
rique');
#266=PROPERTY_DEFINITION('material property','material name',#463);
#267=PROPERTY_DEFINITION('material property','density of part',#463);
#268=DATE_TIME_ROLE('creation_date');
#269=APPLIED_DATE_AND_TIME_ASSIGNMENT(#270,#268,(#463));
#270=DATE_AND_TIME(#271,#272);
#271=CALENDAR_DATE(2021,11,6);
#272=LOCAL_TIME(0,0,0.,#273);
#273=COORDINATED_UNIVERSAL_TIME_OFFSET(0,0,.BEHIND.);
#274=AXIS2_PLACEMENT_3D('placement',#385,#306,#307);
#275=AXIS2_PLACEMENT_3D('',#386,#308,#309);
#276=AXIS2_PLACEMENT_3D('',#395,#314,#315);
#277=AXIS2_PLACEMENT_3D('',#404,#320,#321);
#278=AXIS2_PLACEMENT_3D('',#407,#324,#325);
#279=AXIS2_PLACEMENT_3D('',#408,#326,#327);
#280=AXIS2_PLACEMENT_3D('',#409,#328,#329);
#281=AXIS2_PLACEMENT_3D('',#411,#330,#331);
#282=AXIS2_PLACEMENT_3D('',#414,#333,#334);
#283=AXIS2_PLACEMENT_3D('',#415,#335,#336);
#284=AXIS2_PLACEMENT_3D('',#416,#337,#338);
#285=AXIS2_PLACEMENT_3D('',#418,#339,#340);
#286=AXIS2_PLACEMENT_3D('',#421,#342,#343);
#287=AXIS2_PLACEMENT_3D('',#422,#344,#345);
#288=AXIS2_PLACEMENT_3D('',#423,#346,#347);
#289=AXIS2_PLACEMENT_3D('',#425,#348,#349);
#290=AXIS2_PLACEMENT_3D('',#428,#351,#352);
#291=AXIS2_PLACEMENT_3D('',#429,#353,#354);
#292=AXIS2_PLACEMENT_3D('',#430,#355,#356);
#293=AXIS2_PLACEMENT_3D('',#432,#357,#358);
#294=AXIS2_PLACEMENT_3D('',#435,#360,#361);
#295=AXIS2_PLACEMENT_3D('',#436,#362,#363);
#296=AXIS2_PLACEMENT_3D('',#437,#364,#365);
#297=AXIS2_PLACEMENT_3D('',#439,#366,#367);
#298=AXIS2_PLACEMENT_3D('',#440,#368,#369);
#299=AXIS2_PLACEMENT_3D('',#441,#370,#371);
#300=AXIS2_PLACEMENT_3D('',#443,#372,#373);
#301=AXIS2_PLACEMENT_3D('',#445,#375,#376);
#302=AXIS2_PLACEMENT_3D('',#447,#377,#378);
#303=AXIS2_PLACEMENT_3D('',#448,#379,#380);
#304=AXIS2_PLACEMENT_3D('',#449,#381,#382);
#305=AXIS2_PLACEMENT_3D('',#450,#383,#384);
#306=DIRECTION('axis',(0.,0.,1.));
#307=DIRECTION('refdir',(1.,0.,0.));
#308=DIRECTION('center_axis',(-0.707106781186548,0.,0.707106781186547));
#309=DIRECTION('ref_axis',(0.707106781186547,-8.38003136728373E-17,0.707106781186548));
#310=DIRECTION('',(0.,1.,1.18511540127246E-16));
#311=DIRECTION('',(-0.707106781186547,8.38003136728373E-17,-0.707106781186548));
#312=DIRECTION('',(0.,1.,0.));
#313=DIRECTION('',(0.707106781186547,-8.38003136728373E-17,0.707106781186548));
#314=DIRECTION('center_axis',(0.707106781186548,0.,-0.707106781186547));
#315=DIRECTION('ref_axis',(-0.707106781186547,8.38003136728373E-17,-0.707106781186548));
#316=DIRECTION('',(0.,-1.,-1.18511540127246E-16));
#317=DIRECTION('',(-0.707106781186547,8.38003136728373E-17,-0.707106781186548));
#318=DIRECTION('',(0.,1.,0.));
#319=DIRECTION('',(0.707106781186547,-8.38003136728373E-17,0.707106781186548));
#320=DIRECTION('center_axis',(0.707106781186548,0.,0.707106781186548));
#321=DIRECTION('ref_axis',(0.707106781186548,8.38003136728373E-17,-0.707106781186548));
#322=DIRECTION('',(-0.707106781186548,-8.38003136728373E-17,0.707106781186548));
#323=DIRECTION('',(0.707106781186548,8.38003136728373E-17,-0.707106781186548));
#324=DIRECTION('center_axis',(0.,1.,0.));
#325=DIRECTION('ref_axis',(0.,0.,1.));
#326=DIRECTION('center_axis',(0.,1.,0.));
#327=DIRECTION('ref_axis',(0.,0.,1.));
#328=DIRECTION('center_axis',(0.,1.,1.18511540127246E-16));
#329=DIRECTION('ref_axis',(0.,0.,1.));
#330=DIRECTION('center_axis',(0.,1.,1.18511540127246E-16));
#331=DIRECTION('ref_axis',(1.,0.,0.));
#332=DIRECTION('',(0.,-1.,-1.18511540127246E-16));
#333=DIRECTION('center_axis',(0.,1.,1.18511540127246E-16));
#334=DIRECTION('ref_axis',(1.,0.,0.));
#335=DIRECTION('center_axis',(0.,1.,1.18511540127246E-16));
#336=DIRECTION('ref_axis',(1.,0.,0.));
#337=DIRECTION('center_axis',(0.,-1.,-1.17961196366423E-16));
#338=DIRECTION('ref_axis',(1.,0.,0.));
#339=DIRECTION('center_axis',(0.,-1.,-1.18511540127246E-16));
#340=DIRECTION('ref_axis',(1.,0.,0.));
#341=DIRECTION('',(0.,1.,1.17961196366423E-16));
#342=DIRECTION('center_axis',(0.,1.,1.18511540127246E-16));
#343=DIRECTION('ref_axis',(1.,0.,0.));
#344=DIRECTION('center_axis',(0.,-1.,-1.18511540127246E-16));
#345=DIRECTION('ref_axis',(0.,1.18511540127246E-16,-1.));
#346=DIRECTION('center_axis',(0.,-1.,-1.11022302462516E-16));
#347=DIRECTION('ref_axis',(1.,0.,0.));
#348=DIRECTION('center_axis',(0.,-1.,-1.18511540127246E-16));
#349=DIRECTION('ref_axis',(1.,0.,0.));
#350=DIRECTION('',(0.,1.,1.11022302462516E-16));
#351=DIRECTION('center_axis',(0.,1.,1.18511540127246E-16));
#352=DIRECTION('ref_axis',(1.,0.,0.));
#353=DIRECTION('center_axis',(0.,-1.,-1.18511540127246E-16));
#354=DIRECTION('ref_axis',(0.,1.18511540127246E-16,-1.));
#355=DIRECTION('center_axis',(0.,-1.,-1.17961196366423E-16));
#356=DIRECTION('ref_axis',(1.,0.,0.));
#357=DIRECTION('center_axis',(0.,-1.,-1.18511540127246E-16));
#358=DIRECTION('ref_axis',(1.,0.,0.));
#359=DIRECTION('',(0.,1.,1.17961196366423E-16));
#360=DIRECTION('center_axis',(0.,1.,1.18511540127246E-16));
#361=DIRECTION('ref_axis',(1.,0.,0.));
#362=DIRECTION('center_axis',(0.,-1.,-1.18511540127246E-16));
#363=DIRECTION('ref_axis',(0.,1.18511540127246E-16,-1.));
#364=DIRECTION('center_axis',(-1.08310557229332E-34,-1.,-1.16742694492656E-16));
#365=DIRECTION('ref_axis',(-6.12323399573677E-17,-1.26761905761198E-16,
1.));
#366=DIRECTION('center_axis',(-1.08310557229332E-34,-1.,-1.16742694492656E-16));
#367=DIRECTION('ref_axis',(-6.12323399573677E-17,-1.16742694492656E-16,
1.));
#368=DIRECTION('center_axis',(1.,-2.15535956273696E-32,1.83697019872103E-16));
#369=DIRECTION('ref_axis',(1.83697019872103E-16,1.05634921467665E-16,-1.));
#370=DIRECTION('center_axis',(0.,1.,1.18511540127246E-16));
#371=DIRECTION('ref_axis',(0.,0.,1.));
#372=DIRECTION('center_axis',(0.,1.,1.18511540127246E-16));
#373=DIRECTION('ref_axis',(6.12323399573677E-17,1.14153366221741E-16,-1.));
#374=DIRECTION('',(0.,-1.,-1.18511540127246E-16));
#375=DIRECTION('center_axis',(0.,1.,1.18511540127246E-16));
#376=DIRECTION('ref_axis',(0.,-2.08737583948326E-16,1.));
#377=DIRECTION('center_axis',(0.,-1.,-1.18511540127246E-16));
#378=DIRECTION('ref_axis',(6.12323399573677E-17,1.18511540127246E-16,-1.));
#379=DIRECTION('center_axis',(-1.,-1.45134778278855E-32,1.22464679914735E-16));
#380=DIRECTION('ref_axis',(-1.22464679914735E-16,0.,-1.));
#381=DIRECTION('center_axis',(0.,1.,1.18511540127246E-16));
#382=DIRECTION('ref_axis',(0.,-1.18511540127246E-16,1.));
#383=DIRECTION('center_axis',(0.,-1.,-1.18511540127246E-16));
#384=DIRECTION('ref_axis',(0.,1.18511540127246E-16,-1.));
#385=CARTESIAN_POINT('',(0.,0.,0.));
#386=CARTESIAN_POINT('Origin',(2.97984571138616,0.238147197751992,3.72635305186662));
#387=CARTESIAN_POINT('',(3.00540778686702,0.238147197751992,3.75191512734748));
#388=CARTESIAN_POINT('',(3.00540778686702,0.738147197751993,3.75191512734748));
#389=CARTESIAN_POINT('',(3.00540778686702,0.748147197751992,3.75191512734748));
#390=CARTESIAN_POINT('',(3.78594744193882,0.238147197751992,4.53245478241929));
#391=CARTESIAN_POINT('',(3.78594744193882,0.238147197751992,4.53245478241929));
#392=CARTESIAN_POINT('',(3.78594744193882,0.738147197751992,4.53245478241929));
#393=CARTESIAN_POINT('',(3.78594744193882,0.238147197751992,4.53245478241929));
#394=CARTESIAN_POINT('',(3.78594744193882,0.738147197751992,4.53245478241929));
#395=CARTESIAN_POINT('Origin',(4.39405927375925,0.238147197751992,3.92434295059885));
#396=CARTESIAN_POINT('',(3.61351961868745,0.738147197751993,3.14380329552705));
#397=CARTESIAN_POINT('',(3.61351961868745,0.238147197751992,3.14380329552705));
#398=CARTESIAN_POINT('',(3.61351961868745,0.748147197751992,3.14380329552705));
#399=CARTESIAN_POINT('',(4.39405927375925,0.738147197751992,3.92434295059885));
#400=CARTESIAN_POINT('',(3.58795754320659,0.738147197751993,3.11824122004619));
#401=CARTESIAN_POINT('',(4.39405927375925,0.238147197751992,3.92434295059885));
#402=CARTESIAN_POINT('',(4.39405927375925,0.238147197751992,3.92434295059885));
#403=CARTESIAN_POINT('',(3.58795754320659,0.238147197751993,3.11824122004619));
#404=CARTESIAN_POINT('Origin',(3.78594744193882,0.238147197751992,4.53245478241929));
#405=CARTESIAN_POINT('',(4.39405927375925,0.238147197751992,3.92434295059885));
#406=CARTESIAN_POINT('',(4.39405927375925,0.738147197751992,3.92434295059885));
#407=CARTESIAN_POINT('Origin',(3.6869524925727,0.738147197751992,3.82534800123274));
#408=CARTESIAN_POINT('Origin',(0.,0.738147197751993,0.138395508660033));
#409=CARTESIAN_POINT('Origin',(0.,0.748147197751993,0.138395508660033));
#410=CARTESIAN_POINT('',(8.63375993398884E-16,1.25814719775199,-4.56160449133997));
#411=CARTESIAN_POINT('Origin',(0.,1.25814719775199,0.138395508660033));
#412=CARTESIAN_POINT('',(-5.75583995599256E-16,0.238147197751992,-4.56160449133997));
#413=CARTESIAN_POINT('',(-5.75583995599256E-16,0.748147197751993,-4.56160449133997));
#414=CARTESIAN_POINT('Origin',(0.,0.238147197751993,0.138395508660033));
#415=CARTESIAN_POINT('Origin',(0.,0.238147197751993,0.138395508660033));
#416=CARTESIAN_POINT('Origin',(-2.54,0.238147197751993,0.138395508660033));
#417=CARTESIAN_POINT('',(-2.805,-9.76185280224801,0.138395508660031));
#418=CARTESIAN_POINT('Origin',(-2.54,-9.76185280224801,0.138395508660031));
#419=CARTESIAN_POINT('',(-2.805,0.238147197751993,0.138395508660033));
#420=CARTESIAN_POINT('',(-2.805,0.238147197751993,0.138395508660033));
#421=CARTESIAN_POINT('Origin',(-2.54,0.238147197751993,0.138395508660033));
#422=CARTESIAN_POINT('Origin',(-2.54,-9.76185280224801,0.138395508660031));
#423=CARTESIAN_POINT('Origin',(-6.93889390390723E-17,0.238147197751993,
-2.40160449133997));
#424=CARTESIAN_POINT('',(-0.265,-9.76185280224801,-2.40160449133997));
#425=CARTESIAN_POINT('Origin',(-6.93889390390723E-17,-9.76185280224801,
-2.40160449133997));
#426=CARTESIAN_POINT('',(-0.265,0.238147197751993,-2.40160449133997));
#427=CARTESIAN_POINT('',(-0.265,0.238147197751993,-2.40160449133997));
#428=CARTESIAN_POINT('Origin',(-6.93889390390723E-17,0.238147197751993,
-2.40160449133997));
#429=CARTESIAN_POINT('Origin',(-6.93889390390723E-17,-9.76185280224801,
-2.40160449133997));
#430=CARTESIAN_POINT('Origin',(2.54,0.238147197751993,0.138395508660033));
#431=CARTESIAN_POINT('',(2.275,-9.76185280224801,0.138395508660032));
#432=CARTESIAN_POINT('Origin',(2.54,-9.76185280224801,0.138395508660032));
#433=CARTESIAN_POINT('',(2.275,0.238147197751993,0.138395508660033));
#434=CARTESIAN_POINT('',(2.275,0.238147197751993,0.138395508660033));
#435=CARTESIAN_POINT('Origin',(2.54,0.238147197751993,0.138395508660033));
#436=CARTESIAN_POINT('Origin',(2.54,-9.76185280224801,0.138395508660032));
#437=CARTESIAN_POINT('Origin',(0.,1.75511299134346,0.138395508660033));
#438=CARTESIAN_POINT('',(7.81630819555798E-16,1.75511299134346,-4.11660449133997));
#439=CARTESIAN_POINT('Origin',(-6.32223314647662E-51,1.75511299134346,0.138395508660033));
#440=CARTESIAN_POINT('Origin',(8.7347932949185E-16,1.75511299134346,-4.61660449133997));
#441=CARTESIAN_POINT('Origin',(0.,4.04814719775199,0.138395508660033));
#442=CARTESIAN_POINT('',(-5.21087213037199E-16,6.33814719775199,-4.11660449133997));
#443=CARTESIAN_POINT('Origin',(0.,6.33814719775199,0.138395508660034));
#444=CARTESIAN_POINT('',(-5.21087213037199E-16,4.04814719775199,-4.11660449133997));
#445=CARTESIAN_POINT('Origin',(0.,6.33814719775199,0.138395508660034));
#446=CARTESIAN_POINT('',(-4.59854873079831E-16,6.83814719775199,-3.61660449133997));
#447=CARTESIAN_POINT('Origin',(0.,6.83814719775199,0.138395508660034));
#448=CARTESIAN_POINT('Origin',(-4.59854873079831E-16,6.33814719775199,-3.61660449133997));
#449=CARTESIAN_POINT('Origin',(0.,6.83814719775199,0.138395508660033));
#450=CARTESIAN_POINT('Origin',(0.,0.238147197751992,4.83839550866003));
#451=UNCERTAINTY_MEASURE_WITH_UNIT(LENGTH_MEASURE(0.01),#455,
'DISTANCE_ACCURACY_VALUE',
'Maximum model space distance between geometric entities at asserted c
onnectivities');
#452=UNCERTAINTY_MEASURE_WITH_UNIT(LENGTH_MEASURE(0.01),#455,
'DISTANCE_ACCURACY_VALUE',
'Maximum model space distance between geometric entities at asserted c
onnectivities');
#453=(
GEOMETRIC_REPRESENTATION_CONTEXT(3)
GLOBAL_UNCERTAINTY_ASSIGNED_CONTEXT((#451))
GLOBAL_UNIT_ASSIGNED_CONTEXT((#455,#457,#458))
REPRESENTATION_CONTEXT('','3D')
);
#454=(
GEOMETRIC_REPRESENTATION_CONTEXT(3)
GLOBAL_UNCERTAINTY_ASSIGNED_CONTEXT((#452))
GLOBAL_UNIT_ASSIGNED_CONTEXT((#455,#457,#458))
REPRESENTATION_CONTEXT('','3D')
);
#455=(
LENGTH_UNIT()
NAMED_UNIT(*)
SI_UNIT(.MILLI.,.METRE.)
);
#456=(
LENGTH_UNIT()
NAMED_UNIT(*)
SI_UNIT(.CENTI.,.METRE.)
);
#457=(
NAMED_UNIT(*)
PLANE_ANGLE_UNIT()
SI_UNIT($,.RADIAN.)
);
#458=(
NAMED_UNIT(*)
SI_UNIT($,.STERADIAN.)
SOLID_ANGLE_UNIT()
);
#459=SHAPE_DEFINITION_REPRESENTATION(#460,#461);
#460=PRODUCT_DEFINITION_SHAPE('',$,#463);
#461=SHAPE_REPRESENTATION('',(#274),#453);
#462=PRODUCT_DEFINITION_CONTEXT('part definition',#467,'design');
#463=PRODUCT_DEFINITION('TO-39','TO-39',#464,#462);
#464=PRODUCT_DEFINITION_FORMATION('',$,#469);
#465=PRODUCT_RELATED_PRODUCT_CATEGORY('TO-39','TO-39',(#469));
#466=APPLICATION_PROTOCOL_DEFINITION('international standard',
'automotive_design',2009,#467);
#467=APPLICATION_CONTEXT(
'Core Data for Automotive Mechanical Design Process');
#468=PRODUCT_CONTEXT('part definition',#467,'mechanical');
#469=PRODUCT('TO-39','TO-39',$,(#468));
#470=PRESENTATION_STYLE_ASSIGNMENT((#473));
#471=PRESENTATION_STYLE_ASSIGNMENT((#474));
#472=PRESENTATION_STYLE_ASSIGNMENT((#475));
#473=SURFACE_STYLE_USAGE(.BOTH.,#482);
#474=SURFACE_STYLE_USAGE(.BOTH.,#483);
#475=SURFACE_STYLE_USAGE(.BOTH.,#484);
#476=SURFACE_STYLE_RENDERING_WITH_PROPERTIES($,#494,(#479));
#477=SURFACE_STYLE_RENDERING_WITH_PROPERTIES($,#495,(#480));
#478=SURFACE_STYLE_RENDERING_WITH_PROPERTIES($,#496,(#481));
#479=SURFACE_STYLE_TRANSPARENT(0.);
#480=SURFACE_STYLE_TRANSPARENT(0.);
#481=SURFACE_STYLE_TRANSPARENT(0.);
#482=SURFACE_SIDE_STYLE('',(#485,#476));
#483=SURFACE_SIDE_STYLE('',(#486,#477));
#484=SURFACE_SIDE_STYLE('',(#487,#478));
#485=SURFACE_STYLE_FILL_AREA(#488);
#486=SURFACE_STYLE_FILL_AREA(#489);
#487=SURFACE_STYLE_FILL_AREA(#490);
#488=FILL_AREA_STYLE('',(#491));
#489=FILL_AREA_STYLE('',(#492));
#490=FILL_AREA_STYLE('',(#493));
#491=FILL_AREA_STYLE_COLOUR('',#494);
#492=FILL_AREA_STYLE_COLOUR('',#495);
#493=FILL_AREA_STYLE_COLOUR('',#496);
#494=COLOUR_RGB('',0.749019607843137,0.749019607843137,0.749019607843137);
#495=COLOUR_RGB('',0.745098039215686,0.737254901960784,0.729411764705882);
#496=COLOUR_RGB('',0.462745098039216,0.533333333333333,0.56078431372549);
ENDSEC;
END-ISO-10303-21;
